<?xml version="1.0" encoding="utf-8"?>
<!-- Generator: Adobe Illustrator 27.9.0, SVG Export Plug-In . SVG Version: 6.00 Build 0)  -->
<svg version="1.1" id="Capa_1" xmlns="http://www.w3.org/2000/svg" xmlns:xlink="http://www.w3.org/1999/xlink" x="0px" y="0px"
	 viewBox="0 0 265.62 184.6" style="enable-background:new 0 0 265.62 184.6;" xml:space="preserve">
<style type="text/css">
	.st0{fill:url(#SVGID_1_);stroke:#FFFFFF;stroke-width:1.4173;stroke-miterlimit:10;}
</style>
<linearGradient id="SVGID_1_" gradientUnits="userSpaceOnUse" x1="43.3692" y1="156.6049" x2="222.2503" y2="-22.2761">
	<stop  offset="0" style="stop-color:#04061B"/>
	<stop  offset="0.2601" style="stop-color:#FD1FBB"/>
	<stop  offset="0.2825" style="stop-color:#F71EB7"/>
	<stop  offset="0.3119" style="stop-color:#E71DAD"/>
	<stop  offset="0.3452" style="stop-color:#CC1A9B"/>
	<stop  offset="0.3812" style="stop-color:#A61683"/>
	<stop  offset="0.4196" style="stop-color:#751164"/>
	<stop  offset="0.4593" style="stop-color:#3B0C3E"/>
	<stop  offset="0.4926" style="stop-color:#04061B"/>
	<stop  offset="0.5179" style="stop-color:#042E44"/>
	<stop  offset="0.5496" style="stop-color:#04596F"/>
	<stop  offset="0.5829" style="stop-color:#037E95"/>
	<stop  offset="0.6173" style="stop-color:#039DB4"/>
	<stop  offset="0.6531" style="stop-color:#03B4CC"/>
	<stop  offset="0.6911" style="stop-color:#03C5DD"/>
	<stop  offset="0.7325" style="stop-color:#03CFE7"/>
	<stop  offset="0.7841" style="stop-color:#03D2EA"/>
	<stop  offset="1" style="stop-color:#04061B"/>
</linearGradient>
<path class="st0" d="M250.17,42.66c3.8-7.62,6.5-13.66,8.11-18.12c1.61-4.47,1.66-7.92,0.14-10.37c-0.91-1.49-2.3-2.52-4.17-3.09
	c-0.51-0.15-1.05-0.29-1.63-0.4v0c0,0-0.1-0.02-0.26-0.05c-0.44-0.08-0.91-0.15-1.39-0.21c-3.9-0.52-13.75-1.36-19.68,2.28
	c0,0,15.7-0.37,11.41,11.29c-0.2,0.54-0.43,1.11-0.68,1.71c-1.75,4.12-4.1,9.19-7.04,15.23c-7.8,18.17,2.58,23.99,2.58,23.99
	s-2.7,0.59-6.83,2.55c-0.07,0.03-0.14,0.07-0.21,0.1c-1.8,0.87-3.86,2-6.09,3.45c-5.49,3.76-8.66,8.02-10.46,11.34
	c-0.43,0.92-0.85,1.85-1.24,2.82c-0.95,2.63-1.75,5.25-2.4,7.88c-0.38,1.56-0.77,3.06-1.16,4.52c-1.16,0.01-2.27,0.05-3.23,0.41
	c0,0-16.76,22.76-16.12,12.78c0.46-2.84,1.32-6.4,2.58-10.67c1.36-4.62,2.84-9.3,4.44-14.05c1.6-4.74,3.16-9.2,4.67-13.37
	c1.09-2.98,1.99-5.46,2.7-7.42l2.78-7.3c0.6-1.56-0.83-3.13-2.44-2.7c-7.97,2.12-18.9,0.06-19.22,0c-2.57-0.67-5.34-1.55-7.77-2.68
	c1.96-6.46,3.08-11.88,2.68-14.95c-0.05-0.36-0.11-0.67-0.19-0.97c-0.25-1.17-0.82-2.1-1.71-2.79c-0.49-0.39-1.04-0.65-1.62-0.8
	c0,0-0.01,0-0.02,0c-0.18-0.05-0.37-0.08-0.56-0.1c-1.07-0.14-3.45-0.17-5.94,1.55v0c-0.01,0.01-0.03,0.02-0.04,0.03
	c-0.47,0.33-0.94,0.72-1.41,1.19c-0.9,0.83-1.67,1.69-2.35,2.59v-0.01c0,0-0.06,0.08-0.16,0.23c-0.93,1.28-1.65,2.61-2.21,3.95
	c-2.04,4.52-3.97,12.05,0.76,19.41v0c1.03,1.62,2.47,3.12,4.47,4.28c-3.83,9.87-8.72,20.74-13.55,30.28
	c-0.19,0.08-0.32,0.14-0.32,0.14c-2.92,1.44-7.06,3.52-11.92,6.09c-1.87-4.01-4.62-6.48-6.67-7.86c-2.79-1.73-6.46-3.25-11.25-4.24
	c0.03-0.02,0.06-0.04,0.08-0.07l2.53-2.27c1.96-1.8,3.83-3.86,5.59-6.15c1.76-2.3,3.48-4.94,5.14-7.93
	c2.25-4.14,3.53-7.58,3.83-10.32c0.29-2.73-0.14-4.92-1.31-6.57c-1.17-1.65-2.91-2.83-5.21-3.53c-0.98-0.3-2.01-0.54-3.11-0.73h0.01
	c-0.05-0.01-0.1-0.01-0.14-0.02c-0.36-0.06-0.72-0.11-1.09-0.16c-16.67-2.3-25.63,6.46-25.63,6.46h0c-1.28,1.07-2.95,2.68-4.61,4.88
	c0,0,0.34,1.51,2.16,0.84c0,0,11.47-11.73,17.32-7.68c0.82,0.67,1.27,1.61,1.35,2.84c0.14,2.26-0.48,4.98-1.85,8.17
	c-1.38,3.19-3.26,6.54-5.64,10.04c-2.38,3.51-4.68,6.64-6.88,9.42c-2.38,0.32-4.68,0.89-6.92,1.71c-2.24,0.82-4.2,1.98-5.89,3.5
	c-1.56,1.4-2.43,2.7-2.66,3.89c-4,4.43-10.75,11.11-16.54,14.18v0c-0.68,0.33-1.11,0.52-1.21,0.56c-1.96,0.79-3.33,1.05-4.28,1.05
	c-0.09,0.01-0.17,0.01-0.25,0.02c-0.58-0.05-1.1-0.2-1.57-0.46c-0.02-0.02-0.05-0.04-0.07-0.06c-0.11-0.18-0.19-0.39-0.25-0.62
	c-0.01-0.03-0.01-0.04-0.01-0.04h0c-0.05-0.21-0.07-0.43-0.08-0.68c0-0.01,0-0.01,0-0.02l0,0c0-0.11-0.01-0.23,0-0.35
	c0.31-2.94,1.17-6.89,2.6-11.85c1.42-4.96,3.05-10.02,4.88-15.2c1.83-5.17,3.73-10.1,5.71-14.79c1.84-4.35,3.43-7.72,4.79-10.1
	c0.01-0.01,0.06-0.08,0.13-0.18c0.97-1.12,1.7-0.27,1.94,0.1c0.84,1.37,2.86,5.68-0.11,12.18c-0.08,0.15-0.15,0.3-0.21,0.45
	c-0.36,0.98-0.04,1.47,0.94,1.47c0.76,0,1.43-0.49,2.01-1.47c0.78-1.85,1.34-3.68,1.67-5.47c0.17-0.93,0.26-1.84,0.26-2.72
	c0.01-0.83-0.05-1.64-0.19-2.43c-0.07-0.49-0.17-0.96-0.3-1.41c-2.31-9.31-11.9-7.77-11.9-7.77l0.02,0.05
	c-1.22,0.11-2.54,0.43-3.95,1.04c-2.13,0.91-4,2.32-5.55,4.05c-2.37,2.63-6.32,7.88-10.13,16.85C56.4,84.12,50.35,99.1,49.57,108.8
	c-1.14,1.11-2.36,2.24-3.71,3.39l-3.42,2.64c-1.04,0.81-0.69,0.65-2.99,2.03c-2.07,1.25-5.96,5.09-11.74,3.68l-2.84-1.36
	c-2.27-1.63-3.62-4.33-1.96-8.85c0.2-0.54,0.43-1.11,0.68-1.72c1.75-4.12,4.1-9.19,7.04-15.23c7.8-18.17-2.58-23.99-2.58-23.99
	s2.7-0.58,6.83-2.55c0.07-0.03,0.14-0.07,0.21-0.1c1.8-0.87,3.86-2,6.09-3.45c5.49-3.76,8.66-8.02,10.46-11.34
	c0.43-0.92,0.85-1.85,1.24-2.82c0.95-2.63,1.75-5.25,2.4-7.88c0.65-2.63,1.3-5.12,1.97-7.48c0.67-2.91,1.36-5.6,2.08-8.05
	c0,0,0.32-2.12,1.53-4.48l-0.19,0.39c0.02-0.04,0.23-0.46,0.25-0.5c0.01-0.01,0.01-0.03,0.02-0.04c0.59-1.25,1.31-2.31,2.15-3.2
	c5.61-5.6,15.73-1.21,15.73-1.21c-1.2-4.67-8.49-6.24-12.71-6.77c-2.03-0.29-3.91-0.4-5.61-0.31c-3.26,0.18-6.1,1.05-8.52,2.63
	c-2.99,1.93-5.34,5.03-7.07,9.32c-0.69,1.75-1.31,3.63-1.86,5.65c-0.54,2.01-1.1,4.12-1.65,6.3c-0.48,2.28-1.03,4.62-1.66,7.02
	c-0.62,2.41-1.38,4.79-2.26,7.16c-0.52,1.38-1.11,2.73-1.77,4.07c-0.61,1.07-5.58,8.86-23.2,14.03c0,0,2.48,2.57,4.51,6.27
	c0.1,0.26,0.23,0.5,0.38,0.72c1.95,3.84,3.25,8.73,0.92,13.19c-1.03,2.06-1.98,3.96-2.85,5.71c-3.8,7.61-6.5,13.66-8.11,18.12
	c-1.61,4.46-1.66,7.92-0.14,10.37c0.91,1.49,2.3,2.51,4.17,3.09c0.5,0.15,1.05,0.28,1.63,0.4v0c0,0,0.1,0.02,0.26,0.05
	c0.44,0.08,0.91,0.15,1.39,0.21c1.96,0.26,5.42,0.6,9.14,0.41c0.12,0.01,0.22,0.04,0.35,0.04c0.98,0.06,1.97-0.03,2.94-0.21
	c1.57-0.25,3.17-0.72,4.76-1.32c0.07-0.02,0.13-0.05,0.19-0.08c7.78-2.98,15.29-9.24,17.46-11.14c0,0.08,0,0.17,0,0.24
	c0,0,0.01,0.34,0.08,0.89c0.07,0.57,0.16,1.1,0.29,1.59c0.72,2.93,2.81,7.4,8.9,7.5c0.98,0.06,1.97-0.03,2.94-0.21
	c10.71-1.71,23.05-13.1,23.05-13.1c3.74-3.11,7.14-6.6,9.38-9.04c0,0,0.01,0,0.01,0.01c1.08,0.42,2.45,0.66,4.12,0.71
	c4.74,0.14,9.53-0.65,14.38-2.37c2.41-0.86,4.7-1.89,6.85-3.09c1.57,1.05,2.95,2.34,4.01,3.92c0,0,0.2,0.26,0.48,0.78
	c0.62,1.1,1.08,2.33,1.35,3.71l0.01-0.01c0,0,0,0.03,0,0.07c0.15,0.8,0.25,1.64,0.27,2.54c0.22,1.94,0.25,4.27-0.08,6.99
	c-3.9,2.3-7.9,4.75-11.85,7.31c-5.93,3.83-11.21,7.54-15.85,11.12l0.03-0.02c-11.41,8.2-17.89,16.89-17.93,16.95
	c-5.24,6.55-11.09,16.11-6.48,21.91c0,0,0.09,0.13,0.28,0.34c0.01,0.01,0.02,0.02,0.03,0.03c0.04,0.05,0.09,0.1,0.15,0.15
	c0.43,0.45,0.92,0.88,1.5,1.28c0.05,0.03,0.11,0.06,0.17,0.08c3.13,2.11,10.15,4.86,23.64,1.85c2.31-0.43,4.51-1.03,6.6-1.79
	c0,0,0,0,0.01,0h0c2.82-1.02,5.44-2.31,7.89-3.81c2.22-1.33,4.29-2.75,6.21-4.25l0,0.01c0.01-0.01,0.03-0.02,0.04-0.03
	c4.2-3.27,7.72-6.91,10.67-10.72c10.61-12.74,13.97-24.94,14.78-33.67c0.11,0.02,0.23,0.03,0.33,0.06c0.05,0.01,0.08,0.02,0.08,0.02
	c1.48,0.42,1.99,1.87,1.99,1.87c13.77-22.5,24.38-53.49,24.38-53.49c2.25,1.07,5.06,1.99,8.57,2.61c0,0,0,0.01-0.01,0.01
	c0.36,0.02,0.67,0.01,0.92-0.05c0,0-19.3,43.09-8.12,50.07c0.04,0.02,0.08,0.05,0.13,0.07c0.05,0.03,0.11,0.06,0.17,0.09
	c0.29,0.15,0.59,0.28,0.9,0.41c0.2,0.07,0.4,0.14,0.58,0.21c1.16,0.37,2.51,0.56,4.04,0.56c2.91,0,5.76-0.7,8.58-2.1
	c2.5,3.03,8.05,4.22,11.55,4.65c2.03,0.29,3.9,0.4,5.61,0.31c3.26-0.18,6.1-1.05,8.53-2.63c2.99-1.93,5.34-5.03,7.07-9.32
	c0.69-1.75,1.31-3.63,1.85-5.65c0.54-2.01,1.1-4.12,1.65-6.3c0.48-2.28,1.04-4.62,1.66-7.02c0.62-2.41,1.38-4.79,2.26-7.16
	c0.51-1.38,1.11-2.73,1.77-4.07c0.61-1.07,5.58-8.86,23.2-14.03c0,0-2.48-2.57-4.51-6.27c-0.1-0.26-0.23-0.5-0.38-0.72
	c-1.95-3.84-3.25-8.73-0.92-13.19C248.36,46.31,249.3,44.41,250.17,42.66z M103.51,93.08c-3.92,4.01-6.4,4.08-7.3,3.92
	c0.14-0.36,0.12-0.77-0.05-1.11c0.08-0.14,0.16-0.26,0.16-0.26c0.77-0.92,3.64-3.88,9.36-4.93
	C104.89,91.59,104.17,92.38,103.51,93.08z M116.82,135.29c-2.16,3.76-4.85,7.63-8.21,11.5c-3.66,4.21-8.1,8.42-13.5,12.45
	c-0.75,0.5-1.55,1.07-2.39,1.73c-0.32,0.22-0.64,0.45-0.97,0.67c-2.02,1.56-3.85,2.74-5.47,3.65c-2.81,1.48-4.82,1.88-6.26,1.71
	c-8.2-2.07,1.02-14.99,1.59-15.77c6.1-8.3,17.46-17.89,33.83-28.47c3.12-2.01,6.26-3.96,9.37-5.82
	C123.62,122.01,121.23,128.13,116.82,135.29z M145.65,114.4c-0.01-1.13-0.05-2.16-0.12-3.07c-0.09-1.71-0.32-3.26-0.67-4.68
	c-0.03-0.12-0.05-0.19-0.05-0.19c-0.06-0.24-0.13-0.46-0.19-0.68c3.24-1.72,6.14-3.21,8.6-4.45
	C150.54,106.38,147.96,110.86,145.65,114.4z M176.69,42.06c-0.38,2.47-1.11,5.49-2.11,8.89c-1.28-0.9-2.14-1.89-2.72-2.88
	c-2.04-4.85,0.61-8,2.12-9.31C173.97,38.76,177.08,36.6,176.69,42.06z M206.29,108.62c0,0-0.32,2.12-1.53,4.47l0.01-0.02
	c-0.02,0.04-0.04,0.09-0.06,0.13c-0.01,0.01-0.01,0.03-0.02,0.04c-0.59,1.25-1.31,2.31-2.15,3.2c-3.63,3.62-9.13,3.06-12.57,2.22
	c1.1-0.68,2.2-1.47,3.29-2.37c4.49-3.72,8.72-8.18,12.66-13.37c1-1.31,2.04-2.96,3.02-4.42c-0.19,0.69-0.37,1.4-0.56,2.07
	C207.7,103.48,207.01,106.16,206.29,108.62z"/>
</svg>
